<svg data-v-423bf9ae="" xmlns="http://www.w3.org/2000/svg" viewBox="0 0 396.57303721446357 60" class="font"><!----><!----><!----><g data-v-423bf9ae="" id="a845f457-c075-4882-b99e-c44a3f940b03" fill="white" transform="matrix(5.617977869218204,0,0,5.617977869218204,-5.8988839192398075,-15.730337527506329)"><path d="M2.03 8.58L2.03 4.71L4.24 4.71C4.82 4.71 5.28 4.89 5.63 5.25C5.97 5.60 6.15 6.06 6.15 6.62C6.15 7.18 5.96 7.65 5.60 8.03C5.24 8.39 4.79 8.58 4.24 8.58ZM7.13 6.65C7.13 5.81 6.83 5.12 6.24 4.57C5.66 4.04 4.94 3.78 4.10 3.78L1.05 3.78L1.05 13.30L2.03 13.30L2.03 9.53L4.10 9.53C4.95 9.53 5.66 9.26 6.24 8.73C6.83 8.17 7.13 7.48 7.13 6.65ZM9.44 13.30L9.44 2.80L8.46 2.80L8.46 13.30ZM16.44 10.22C16.44 10.82 16.23 11.34 15.81 11.79C15.40 12.24 14.88 12.46 14.27 12.46C13.65 12.46 13.14 12.24 12.72 11.79C12.30 11.34 12.10 10.82 12.10 10.22C12.10 9.62 12.30 9.10 12.72 8.65C13.14 8.20 13.65 7.98 14.27 7.98C14.88 7.98 15.40 8.20 15.81 8.65C16.23 9.10 16.44 9.62 16.44 10.22ZM17.42 13.30L17.42 7.14L16.44 7.14L16.44 8.19C16.38 8.12 16.32 8.05 16.26 7.98C15.68 7.33 14.96 7.00 14.11 7.00C13.26 7.00 12.54 7.33 11.96 7.98C11.40 8.61 11.12 9.36 11.12 10.22C11.12 11.08 11.40 11.83 11.96 12.46C12.54 13.11 13.26 13.44 14.11 13.44C14.96 13.44 15.68 13.11 16.26 12.46C16.32 12.39 16.38 12.32 16.44 12.25L16.44 13.30ZM23.77 13.30L24.75 13.30L24.75 9.45C24.75 8.74 24.57 8.16 24.19 7.72C24.01 7.50 23.78 7.33 23.51 7.20C23.24 7.08 22.88 7.01 22.44 7.01C22.00 7.01 21.62 7.13 21.28 7.36C20.96 7.57 20.70 7.85 20.50 8.20L20.50 7.14L19.52 7.14L19.52 13.30L20.50 13.30L20.50 10.72C20.50 9.94 20.64 9.32 20.94 8.86C21.10 8.60 21.31 8.39 21.57 8.23C21.84 8.07 22.18 7.99 22.60 7.99C23.02 7.99 23.32 8.14 23.50 8.42C23.68 8.71 23.77 9.05 23.77 9.45ZM25.87 4.66L28.18 4.66L28.18 13.27L29.16 13.27L29.16 4.66L31.47 4.66L31.47 3.75L29.16 3.75L28.18 3.75L25.87 3.75ZM33.78 13.30L33.78 10.72C33.78 9.87 33.93 9.22 34.22 8.77C34.39 8.52 34.60 8.33 34.86 8.20C35.12 8.06 35.46 7.99 35.88 7.99C36.30 7.99 36.60 8.14 36.79 8.42C36.97 8.71 37.06 9.05 37.06 9.45L37.06 13.30L38.04 13.30L38.04 9.45C38.04 8.74 37.85 8.16 37.48 7.72C37.29 7.50 37.06 7.33 36.79 7.20C36.52 7.08 36.17 7.01 35.73 7.01C35.29 7.01 34.90 7.13 34.57 7.36C34.25 7.57 33.99 7.85 33.78 8.20L33.78 2.80L32.80 2.80L32.80 13.30ZM45.95 10.08C45.95 9.23 45.62 8.50 44.98 7.88C44.34 7.28 43.59 6.97 42.73 6.97C41.84 6.97 41.08 7.29 40.45 7.92C39.82 8.55 39.51 9.31 39.51 10.19C39.51 11.08 39.82 11.84 40.45 12.46C40.75 12.75 41.09 12.98 41.48 13.15C41.86 13.31 42.33 13.40 42.88 13.40C43.42 13.40 43.96 13.23 44.48 12.89C45.01 12.55 45.41 12.08 45.67 11.49L44.55 11.49C44.33 11.78 44.06 12.01 43.74 12.17C43.42 12.34 43.08 12.42 42.73 12.42C42.20 12.42 41.73 12.25 41.30 11.90C40.88 11.56 40.62 11.13 40.53 10.60L45.95 10.60ZM44.91 9.76L40.54 9.76C40.60 9.50 40.70 9.26 40.84 9.04C41.30 8.31 41.93 7.95 42.73 7.95C43.25 7.95 43.72 8.12 44.12 8.46C44.54 8.80 44.80 9.23 44.91 9.76ZM53.77 10.65C53.77 9.97 53.61 9.40 53.28 8.95C52.96 8.50 52.51 8.20 51.95 8.05C52.29 7.90 52.56 7.65 52.77 7.28C52.87 7.11 52.95 6.94 53.00 6.76C53.05 6.57 53.07 6.32 53.07 6.01C53.07 5.69 53.00 5.38 52.85 5.07C52.43 4.21 51.53 3.78 50.13 3.78L47.56 3.78L47.56 13.30L50.47 13.30C51.44 13.30 52.21 13.08 52.79 12.64C53.09 12.41 53.33 12.11 53.51 11.76C53.69 11.41 53.77 11.03 53.77 10.65ZM52.09 6.16C52.09 6.67 51.94 7.06 51.63 7.31C51.32 7.56 50.92 7.69 50.41 7.69L48.54 7.69L48.54 4.72L50.13 4.72C51.44 4.72 52.09 5.20 52.09 6.16ZM52.79 10.46C52.79 11.02 52.60 11.49 52.21 11.84C51.84 12.19 51.35 12.36 50.75 12.36L48.54 12.36L48.54 8.67L50.90 8.67C51.41 8.67 51.84 8.83 52.21 9.16C52.39 9.32 52.53 9.50 52.63 9.72C52.74 9.93 52.79 10.18 52.79 10.46ZM61.12 10.08C61.12 9.23 60.80 8.50 60.15 7.88C59.51 7.28 58.77 6.97 57.90 6.97C57.02 6.97 56.26 7.29 55.63 7.92C55.00 8.55 54.68 9.31 54.68 10.19C54.68 11.08 55.00 11.84 55.63 12.46C55.92 12.75 56.26 12.98 56.65 13.15C57.04 13.31 57.51 13.40 58.05 13.40C58.60 13.40 59.13 13.23 59.66 12.89C60.19 12.55 60.58 12.08 60.84 11.49L59.72 11.49C59.51 11.78 59.24 12.01 58.92 12.17C58.60 12.34 58.26 12.42 57.90 12.42C57.38 12.42 56.90 12.25 56.48 11.90C56.06 11.56 55.80 11.13 55.71 10.60L61.12 10.60ZM60.09 9.76L55.72 9.76C55.78 9.50 55.87 9.26 56.01 9.04C56.48 8.31 57.11 7.95 57.90 7.95C58.43 7.95 58.89 8.12 59.30 8.46C59.71 8.80 59.98 9.23 60.09 9.76ZM63.63 12.42C63.38 12.26 63.20 11.98 63.10 11.58L62.06 11.58C62.27 12.85 63.09 13.48 64.52 13.48C64.86 13.48 65.17 13.44 65.45 13.36C65.74 13.28 66.01 13.17 66.25 13.01C66.72 12.69 66.96 12.20 66.96 11.54C66.96 10.88 66.64 10.39 66.01 10.09C65.73 9.96 65.44 9.86 65.13 9.79C64.81 9.72 64.52 9.64 64.25 9.56C63.98 9.47 63.75 9.37 63.57 9.24C63.38 9.11 63.29 8.91 63.29 8.63C63.29 8.35 63.40 8.15 63.63 8.01C63.85 7.88 64.11 7.81 64.41 7.81C64.72 7.81 64.98 7.87 65.19 7.98C65.40 8.09 65.56 8.32 65.67 8.67L66.72 8.67C66.59 8.04 66.32 7.61 65.93 7.37C65.53 7.12 65.03 7.00 64.44 7.00C63.85 7.00 63.33 7.16 62.90 7.47C62.47 7.79 62.26 8.25 62.26 8.86C62.26 9.17 62.33 9.43 62.49 9.66C62.65 9.88 62.89 10.07 63.21 10.22C63.48 10.34 63.77 10.44 64.09 10.52C64.40 10.59 64.69 10.68 64.96 10.76C65.60 10.97 65.92 11.27 65.92 11.66C65.92 12.33 65.48 12.67 64.58 12.67C64.19 12.67 63.87 12.59 63.63 12.42ZM67.59 8.05L69.13 8.05L69.13 13.30L70.11 13.30L70.11 8.05L71.64 8.05L71.64 7.14L70.11 7.14L70.11 4.75L69.13 4.75L69.13 7.14L67.59 7.14Z"></path></g><!----><!----></svg>